<svg id="Layer_1" data-name="Layer 1" xmlns="http://www.w3.org/2000/svg" viewBox="0 0 128 128"><defs><style>.cls-1{fill:#0ff5bb;}.cls-2{fill:#27003d;}</style></defs><rect class="cls-1" width="128" height="128"/><path class="cls-2" d="M79.82,118.08A55.68,55.68,0,0,0,72.42,8.85V-83.48h-13V8.85a55.68,55.68,0,0,0-7.41,109.23L.5,169.64l9.16,9.16L59.47,129v81.49h13V129l45.92,45.92,9.16-9.15Zm-13.88-11.2a42.74,42.74,0,1,1,42.74-42.73A42.78,42.78,0,0,1,65.94,106.88ZM60.62,55.55l-5.23-6L64,38.27l-5.14-3.93L51.05,44.52l-7.27-8.39-4.89,4.24L47,49.77l-5,6.58,5.15,3.94,4.22-5.52,4.36,5ZM88.71,43.28l-5.39-3.59-3.35,5-4.72-4.33-4.37,4.78,5.45,5-6,8.94,5.39,3.6,5.4-8.11,5.26,4.81,4.37-4.77-6-5.5Zm-3.1,33.84L75.12,78.43c-.25,0-.5,0-.76,0a9.31,9.31,0,0,0-3,.51L54.53,81l.81,6.42L65,86.23a11,11,0,0,0-.3,2.52c0,5.71,4.35,10.36,9.71,10.36s9.71-4.65,9.71-10.36A10.83,10.83,0,0,0,83,84l3.45-.43ZM74.36,92.64c-1.79,0-3.24-1.75-3.24-3.89A4,4,0,0,1,73,85.22l2-.25a3.78,3.78,0,0,1,2.54,3.78C77.6,90.89,76.15,92.64,74.36,92.64Z"/></svg>