<?xml version="1.0" encoding="utf-8"?>
<!-- Generator: Adobe Illustrator 25.2.0, SVG Export Plug-In . SVG Version: 6.00 Build 0)  -->
<svg version="1.1" id="Layer_1" xmlns="http://www.w3.org/2000/svg" xmlns:xlink="http://www.w3.org/1999/xlink" x="0px" y="0px"
	 viewBox="0 0 844 621" style="enable-background:new 0 0 844 621;" xml:space="preserve">
<style type="text/css">
	.st0{fill:none;stroke:#000000;stroke-width:10;stroke-miterlimit:10;}
	.st1{fill:none;stroke:#000000;stroke-width:5;stroke-miterlimit:10;}
</style>
<g>
	<line class="st0" x1="112.5" y1="528.5" x2="586.5" y2="528.5"/>
</g>
<line class="st0" x1="349" y1="530" x2="349" y2="99"/>
<line class="st0" x1="344" y1="99" x2="628" y2="99"/>
<line class="st0" x1="426.54" y1="98.96" x2="349.46" y2="176.04"/>
<path class="st0" d="M623,132c0,20.99,0,38,0,38S623,152.99,623,132s0-38,0-38S623,111.01,623,132z"/>
<circle class="st0" cx="623" cy="208" r="38"/>
<line class="st0" x1="623" y1="246" x2="623" y2="321"/>
<line class="st0" x1="623" y1="246" x2="576" y2="293"/>
<line class="st0" x1="623" y1="246" x2="667" y2="290"/>
<line class="st0" x1="623" y1="321" x2="599" y2="482"/>
<line class="st0" x1="623" y1="321" x2="653" y2="481"/>
<line class="st1" x1="604" y1="188" x2="617" y2="203"/>
<line class="st1" x1="606.5" y1="203.5" x2="619.5" y2="186.5"/>
<line class="st1" x1="628.5" y1="191.5" x2="640.5" y2="202.5"/>
<line class="st1" x1="638.5" y1="190.5" x2="628.5" y2="205.5"/>
<line class="st1" x1="614.5" y1="223.5" x2="638.5" y2="220.5"/>
<ellipse class="st1" cx="629.5" cy="227" rx="5" ry="5.5"/>
</svg>
